<svg width="160" height="108" viewBox="0 0 160 108" fill="none" xmlns="http://www.w3.org/2000/svg">
<path fill-rule="evenodd" clip-rule="evenodd" d="M74.89 91.4569C92.9462 101.741 113.597 109.294 134.072 107.815C141.522 107.277 148.418 105.019 155.498 102.774C155.995 102.618 156.278 102.064 156.129 101.54C155.978 101.015 155.451 100.718 154.952 100.877C148.009 103.077 141.249 105.309 133.943 105.836C113.759 107.295 93.4131 99.7832 75.6301 89.6246L75.7567 89.3245C77.1399 86.0696 76.2832 81.3192 74.0234 76.3339C70.7851 69.1874 64.7557 61.5084 59.3296 57.267C56.891 55.3616 54.5542 54.1505 52.6272 53.8973C51.1248 53.6989 49.836 54.0539 48.8401 54.9988C46.7194 57.0138 46.7939 60.4513 48.4751 64.437C51.989 72.7737 62.3096 83.7519 67.907 87.2729C69.6552 88.3718 71.4333 89.4523 73.2387 90.5042C73.0102 91.0837 72.7842 91.6501 72.5408 92.1904C71.843 93.7277 70.9863 95.0719 69.3349 95.9933C66.7597 97.4263 63.673 97.6742 60.5142 97.3036C55.5848 96.7215 50.4816 94.6152 46.7244 92.8064C25.8 82.7313 15.4371 65.2565 9.8795 47.7139C4.26971 29.9964 3.53465 12.1954 1.87332 1.6949C1.78888 1.1546 1.30216 0.791797 0.78811 0.880541C0.274065 0.969285 -0.073597 1.48087 0.0133188 2.02116C1.68459 12.5895 2.44197 30.5054 8.0915 48.3404C13.7932 66.3502 24.459 84.2661 45.9371 94.61C49.8508 96.4945 55.1701 98.6687 60.3031 99.2742C63.8567 99.6919 67.3209 99.3578 70.2189 97.7447C72.819 96.2961 73.852 94.0357 74.89 91.4569ZM73.9712 88.6641L74.0358 88.5153C75.2452 85.6703 74.2965 81.5463 72.3198 77.1874C69.2082 70.3202 63.4196 62.9361 58.2022 58.8591C56.4142 57.4601 54.7032 56.4552 53.1983 56.0324C51.9567 55.6852 50.8789 55.7348 50.1066 56.4709C49.3741 57.1626 49.0835 58.1152 49.0959 59.2246C49.1083 60.527 49.5206 62.0226 50.1985 63.633C53.5758 71.6435 63.4966 82.1884 68.8755 85.5711C70.5467 86.6204 72.2453 87.654 73.9712 88.6641Z" fill="#1E3240"/>
<path fill-rule="evenodd" clip-rule="evenodd" d="M157.892 99.7059C157.81 100.131 157.535 100.667 157.232 101.238C156.511 102.601 155.486 104.052 155.029 104.757C154.736 105.211 154.85 105.827 155.28 106.135C155.712 106.443 156.298 106.325 156.591 105.871C157.15 105.007 158.513 103.07 159.246 101.465C159.638 100.604 159.842 99.8078 159.797 99.2361C159.722 98.2626 158.99 97.6544 157.537 97.6909C155.819 97.7353 152.627 98.641 149.955 97.5526C149.471 97.3542 148.922 97.61 148.736 98.119C148.547 98.6306 148.788 99.2048 149.275 99.4032C151.823 100.439 154.793 99.9409 156.792 99.7321C157.172 99.6929 157.624 99.6981 157.892 99.7059Z" fill="#1E3240"/>
</svg>
